<svg width="20" height="20" xmlns="http://www.w3.org/2000/svg">

 <g>
  <title>Layer 1</title>
  <path id="svg_1" d="m5,10a5,5 0 1 1 5,5a5,5 0 0 1 -5,-5zm5,-7a1,1 0 0 0 1,-1l0,-1a1,1 0 0 0 -2,0l0,1a1,1 0 0 0 1,1zm-1,15l0,1a1,1 0 0 0 2,0l0,-1a1,1 0 0 0 -2,0zm10,-9l-1,0a1,1 0 0 0 0,2l1,0a1,1 0 0 0 0,-2zm-18,2l1,0a1,1 0 0 0 0,-2l-1,0a1,1 0 0 0 0,2zm14.657,-5.657a1,1 0 0 0 0.707,-0.293l0.707,-0.707a1,1 0 1 0 -1.414,-1.414l-0.707,0.707a1,1 0 0 0 0.707,1.707zm-12.021,9.607l-0.707,0.707a1,1 0 1 0 1.414,1.414l0.707,-0.707a1,1 0 0 0 -1.414,-1.414zm11.314,0a1,1 0 0 0 0,1.414l0.707,0.707a1,1 0 0 0 1.414,-1.414l-0.707,-0.707a1,1 0 0 0 -1.414,0zm-11.314,-9.9a1,1 0 0 0 1.414,-1.414l-0.707,-0.707a1,1 0 0 0 -1.414,1.414l0.707,0.707z"/>
 </g>
</svg>