<svg width="20" height="20" xmlns="http://www.w3.org/2000/svg">
 <g>
  <title>Layer 1</title>
  <g id="svg_1">
   <polygon points="8.34424877166748,5.191256582736969 8.34424877166748,10.530726492404938 11.070293426513672,13.261739790439606 12.242856979370117,12.09248834848404 10.000411987304688,9.845074713230133 10.000411987304688,5.191256582736969 8.34424877166748,5.191256582736969 " id="svg_2"/>
   <path d="m9.20214,0.86205a9.13788,9.13788 0 1 0 6.28183,15.7733a8.81907,8.81907 0 0 0 0.99784,-1.10963l-2.63992,-2.00147a5.57547,5.57547 0 0 1 -0.631,0.70056a5.82721,5.82721 0 1 1 1.75222,-5.0513l-1.65037,0l3.22952,4.06422l3.39513,-4.06671l-1.63877,0a9.14782,9.14782 0 0 0 -9.09648,-8.30897z" id="svg_3"/>
  </g>
 </g>

</svg>